<?xml version="1.0" encoding="utf-8"?>
<!-- Generator: Adobe Illustrator 21.1.0, SVG Export Plug-In . SVG Version: 6.00 Build 0)  -->
<svg version="1.1" id="Layer_1" xmlns="http://www.w3.org/2000/svg" xmlns:xlink="http://www.w3.org/1999/xlink" x="0px" y="0px"
	 viewBox="0 0 21 20" style="enable-background:new 0 0 21 20;" xml:space="preserve">
<style type="text/css">
	.st0{fill:#FF5656;stroke:#FF5656;stroke-miterlimit:10;}
</style>
<path class="st0" d="M16.4,3.3l-6.2,9.9L6.7,8.4L6,8.9l4.3,5.8l6.3-10.1c1.3,1.4,2.1,3.3,2.1,5.4c0,4.5-3.7,8.1-8.1,8.1
	S2.5,14.4,2.5,10s3.7-8.1,8.1-8.1c1.8,0,3.4,0.5,4.8,1.5l0.4-0.7C14.2,1.6,12.5,1,10.5,1c-4.9,0-9,4.1-9,9s4.1,9,9,9s9-4.1,9-9
	C19.5,7.3,18.3,4.9,16.4,3.3z"/>
</svg>
